<?xml version="1.0" encoding="UTF-8"?>
<svg version="1.1" xmlns="http://www.w3.org/2000/svg" width="716" height="716">
<path d="M0,0 L10,2 L17,8 L19,12 L20,20 L20,179 L24,180 L24,182 L21,182 L24,184 L26,185 L27,183 L30,183 L31,12 L35,6 L40,2 L43,1 L55,1 L61,4 L66,10 L68,15 L69,211 L70,255 L70,323 L72,324 L71,325 L72,346 L79,437 L81,461 L81,467 L84,468 L88,476 L94,488 L94,490 L97,491 L98,499 L102,513 L105,535 L106,552 L106,607 L105,636 L104,647 L102,652 L106,653 L147,653 L153,655 L155,658 L155,666 L151,670 L83,671 L-24,671 L-100,670 L-104,667 L-105,661 L-102,655 L-96,653 L-51,653 L-53,650 L-54,646 L-53,644 L-55,644 L-55,638 L-53,638 L-54,632 L-55,593 L-55,553 L-54,530 L-53,526 L-55,526 L-55,524 L-53,524 L-51,514 L-53,514 L-53,512 L-51,511 L-47,497 L-40,481 L-34,471 L-31,467 L-30,456 L-31,454 L-29,454 L-28,434 L-23,370 L-23,356 L-21,356 L-21,350 L-23,350 L-23,348 L-21,348 L-20,328 L-19,196 L-19,39 L-18,14 L-15,8 L-8,2 Z M23,487 L20,488 L20,490 L18,490 L18,488 L10,490 L0,495 L-10,504 L-16,514 L-20,526 L-21,540 L-20,541 L-19,550 L-17,558 L-18,591 L-20,637 L-21,648 L-22,653 L-19,654 L48,654 L71,653 L71,651 L73,650 L72,648 L70,615 L68,577 L66,577 L66,575 L68,575 L67,572 L68,571 L68,556 L71,545 L71,531 L71,530 L69,521 L67,521 L68,517 L63,507 L59,505 L58,501 L55,498 L51,498 L51,495 L42,490 L37,490 L35,488 Z M-54,639 Z M-53,647 Z M72,652 Z " fill="#424343" transform="translate(333,11)"/>
<path d="M0,0 L12,0 L22,2 L35,8 L37,12 L39,15 L42,16 L44,24 L46,26 L46,39 L48,40 L45,41 L44,50 L39,60 L29,69 L20,73 L10,74 L-2,72 L-9,70 L-11,67 L-14,67 L-17,61 L-19,60 L-23,51 L-23,48 L-26,49 L-25,44 L-25,25 L-23,25 L-22,17 L-14,10 L-8,5 L-6,5 L-6,2 L0,2 Z M-5,3 Z " fill="#424243" transform="translate(348,510)"/>
<path d="M0,0 L4,1 L9,7 L11,17 L11,176 L15,177 L15,179 L12,179 L15,181 L17,182 L18,180 L22,179 L21,183 L19,185 L13,185 L9,181 L7,176 L6,9 L3,4 L0,2 Z " fill="#373738" transform="translate(342,14)"/>
<path d="M0,0 L4,1 L9,7 L11,12 L12,216 L11,249 L9,248 L8,170 L7,10 L2,3 L0,2 Z " fill="#2C2B2C" transform="translate(390,14)"/>
<path d="M0,0 L7,1 L9,4 L9,12 L5,16 L-63,17 L-170,17 L-246,16 L-246,13 L2,13 L5,12 L5,4 Z " fill="#171617" transform="translate(479,665)"/>
<path d="M0,0 L16,0 L27,4 L37,10 L35,11 L35,13 L33,13 L33,10 L28,8 L24,6 L19,6 L17,4 L5,3 L2,3 L2,5 L0,5 L0,3 L-15,9 L-25,17 L-31,25 L-36,37 L-39,55 L-37,56 L-36,65 L-34,73 L-34,82 L-35,92 L-37,94 L-38,70 L-40,65 L-41,59 L-41,41 L-37,29 L-31,19 L-21,9 L-13,4 Z " fill="#222122" transform="translate(351,496)"/>
<path d="M0,0 L1,0 L1,10 L0,15 L-1,29 L-1,138 L-4,140 L-3,134 L-5,134 L-5,128 L-3,128 L-4,122 L-5,83 L-5,43 L-4,20 L-3,16 L-5,16 L-5,14 L-3,14 L-1,4 L-3,4 L-3,2 Z M-4,129 Z M-3,137 Z " fill="#2D2C2E" transform="translate(283,521)"/>
<path d="M0,0 L3,1 L-3,7 L-4,11 L-5,177 L-7,178 L-7,9 L-3,3 Z " fill="#161616" transform="translate(371,14)"/>
<path d="M0,0 L2,0 L0,4 L-3,7 L-5,12 L-6,127 L-7,137 L-8,137 L-9,105 L-9,36 L-8,11 L-5,5 Z " fill="#2B2829" transform="translate(323,14)"/>
<path d="M0,0 L11,2 L24,8 L26,12 L28,15 L31,16 L33,24 L35,26 L35,39 L37,40 L34,41 L33,50 L28,60 L18,69 L9,73 L-1,74 L-6,73 L-6,71 L10,69 L19,64 L27,55 L31,44 L31,31 L28,21 L20,10 L10,5 L1,3 Z " fill="#272627" transform="translate(359,510)"/>
<path d="M0,0 L1,0 L2,37 L3,135 L2,168 L0,167 Z " fill="#141414" transform="translate(399,95)"/>
<path d="M0,0 L4,1 L12,10 L18,23 L20,32 L20,46 L17,57 L17,96 L16,101 L15,101 L14,93 L14,80 L12,80 L12,78 L14,78 L12,74 L14,74 L13,69 L13,59 L16,48 L16,35 L15,33 L17,33 L15,24 L13,24 L12,17 L8,10 L4,8 L3,4 Z " fill="#252525" transform="translate(387,508)"/>
<path d="M0,0 L1,3 L1,100 L0,105 L-1,105 L-2,97 L-2,3 Z " fill="#1C1B1B" transform="translate(352,85)"/>
<path d="M0,0 L1,0 L2,36 L2,104 L4,105 L3,106 L2,119 L0,118 L-1,108 L-2,80 L-2,32 L-1,32 Z " fill="#2D2D2D" transform="translate(401,230)"/>
<path d="M0,0 L1,0 L2,16 L2,92 L1,149 L0,149 L-1,40 Z " fill="#1A1919" transform="translate(315,177)"/>
<path d="M0,0 L2,0 L3,5 L4,22 L4,77 L3,84 L1,84 Z " fill="#2D2D2E" transform="translate(435,541)"/>
<path d="M0,0 L1,0 L2,10 L0,56 L-1,67 L-3,72 L3,73 L3,74 L-6,75 L-7,72 L-5,68 L-3,46 L-1,2 Z " fill="#262627" transform="translate(314,592)"/>
<path d="M0,0 L1,0 L1,24 L-6,34 L-16,56 L-19,66 L-21,67 L-20,57 L-12,39 L-6,29 L-3,25 L-2,14 L-3,12 L-1,12 L-1,5 Z " fill="#272627" transform="translate(305,453)"/>
<path d="M0,0 L1,0 L2,72 L4,75 L4,80 L8,81 L8,83 L5,83 L8,85 L10,86 L11,84 L15,83 L14,87 L12,89 L6,89 L2,85 L0,80 Z " fill="#383839" transform="translate(349,110)"/>
<path d="M0,0 L10,0 L10,3 L-4,6 L-12,12 L-17,18 L-21,27 L-23,39 L-25,39 L-25,25 L-23,25 L-22,17 L-14,10 L-8,5 L-6,5 L-6,2 L0,2 Z M-5,3 Z " fill="#1E1E1F" transform="translate(348,510)"/>
<path d="M0,0 L2,3 L2,57 L0,58 L-1,52 L-1,1 Z " fill="#141415" transform="translate(351,26)"/>
<path d="M0,0 L4,1 L9,7 L11,13 L10,53 L8,54 L7,10 L2,3 L0,2 Z " fill="#1E1F1F" transform="translate(390,14)"/>
<path d="M0,0 L1,0 L2,22 L2,40 L0,41 L-1,36 L-1,4 Z " fill="#262626" transform="translate(404,612)"/>
<path d="M0,0 L2,0 L0,4 L-3,7 L-5,12 L-6,41 L-8,40 L-9,36 L-8,11 L-5,5 Z " fill="#1C1B1C" transform="translate(323,14)"/>
<path d="M0,0 L2,0 L3,4 L4,18 L4,34 L1,31 L0,12 Z " fill="#282828" transform="translate(404,380)"/>
<path d="M0,0 L1,0 L2,10 L1,37 L0,45 L-1,45 L-1,2 Z " fill="#212122" transform="translate(314,592)"/>
<path d="M0,0 L2,0 L2,28 L1,33 L0,33 L-1,25 L-1,2 Z " fill="#131314" transform="translate(351,157)"/>
<path d="M0,0 L3,3 L3,8 L7,9 L7,11 L4,11 L7,13 L9,14 L10,12 L14,11 L13,15 L11,17 L5,17 L1,13 L0,10 Z " fill="#181818" transform="translate(350,182)"/>
<path d="M0,0 L1,0 L2,16 L1,27 L-2,33 L-5,33 L-2,24 L-1,3 Z " fill="#1E1E1E" transform="translate(436,631)"/>
<path d="M0,0 L2,0 L6,13 L10,19 L14,24 L11,24 L10,26 L7,20 L5,19 L1,10 L1,7 L-2,8 L-1,5 Z " fill="#202020" transform="translate(324,551)"/>
<path d="M0,0 L2,3 L-3,15 L-5,26 L-7,24 L-7,15 L-2,3 Z " fill="#292829" transform="translate(318,518)"/>
<path d="M0,0 L1,0 L1,10 L-1,23 L-3,25 L-4,20 L-3,16 L-5,16 L-5,14 L-3,14 L-1,4 L-3,4 L-3,2 Z " fill="#1F1F1F" transform="translate(283,521)"/>
<path d="M0,0 L2,3 L4,12 L4,26 L1,25 L0,15 L-1,13 L1,13 L-1,3 Z " fill="#2E2E2E" transform="translate(403,528)"/>
<path d="M0,0 L29,0 L29,3 L9,3 L0,2 Z " fill="#1F1F20" transform="translate(241,664)"/>
<path d="M0,0 L2,0 L4,18 L3,24 L1,24 L0,14 Z " fill="#232323" transform="translate(409,442)"/>
<path d="M0,0 L1,0 L2,18 L2,29 L-1,31 L0,25 L-2,25 L-2,19 L0,19 L-1,12 Z M-1,20 Z M0,28 Z " fill="#161617" transform="translate(280,630)"/>
<path d="M0,0 L2,1 L5,15 L5,25 L3,24 L0,7 Z " fill="#282828" transform="translate(431,515)"/>
<path d="M0,0 L7,0 L18,6 L21,9 L19,9 L19,11 L17,11 L17,8 L12,6 L8,4 L3,4 Z " fill="#1D1D1D" transform="translate(367,498)"/>
<path d="M0,0 L1,0 L1,15 L0,24 L-2,25 L-2,7 Z " fill="#232324" transform="translate(310,401)"/>
<path d="M0,0 L2,0 L3,2 L6,3 L8,11 L10,13 L6,18 L3,8 L0,3 Z " fill="#1E1E1F" transform="translate(384,523)"/>
<path d="M0,0 L2,4 L2,25 L0,24 L-1,4 Z " fill="#222222" transform="translate(403,353)"/>
<path d="M0,0 L19,0 L23,2 L19,3 L1,3 Z " fill="#262527" transform="translate(343,664)"/>
<path d="M0,0 L14,0 L14,2 L10,3 L-7,3 L-10,1 Z " fill="#1C1B1C" transform="translate(328,664)"/>
<path d="M0,0 L1,0 L1,23 L-1,23 L-2,18 L-3,16 L-1,16 L-1,10 L-3,10 L-3,8 L-1,8 Z " fill="#1B1B1C" transform="translate(313,351)"/>
<path d="M0,0 L3,1 L2,9 L1,11 L7,12 L7,13 L-2,14 L-3,11 L-1,7 Z " fill="#313132" transform="translate(310,653)"/>
<path d="M0,0 L1,0 L2,12 L4,13 L1,14 L1,19 L-2,19 L-1,2 Z " fill="#2E2D2E" transform="translate(392,537)"/>
<path d="M0,0 L1,0 L2,6 L2,14 L1,21 L-1,22 L-1,4 Z " fill="#272728" transform="translate(311,377)"/>
<path d="M0,0 L1,0 L1,18 L-2,26 L-4,25 L-1,12 Z " fill="#1E1E1F" transform="translate(405,541)"/>
<path d="M0,0 L2,1 L2,12 L1,19 L-1,19 L-1,5 Z " fill="#242324" transform="translate(307,430)"/>
<path d="M0,0 L2,2 L-2,12 L-4,15 L-7,15 L-5,10 Z " fill="#202020" transform="translate(391,555)"/>
<path d="M0,0 L2,0 L3,5 L3,14 L1,18 L0,13 Z " fill="#2A2B2B" transform="translate(435,541)"/>
<path d="M0,0 L15,0 L15,2 L13,3 L-4,2 Z " fill="#1F1F20" transform="translate(377,664)"/>
<path d="M0,0 L7,1 L9,4 L9,12 L7,12 L4,3 Z " fill="#2B2B2B" transform="translate(479,665)"/>
<path d="M0,0 L3,1 L6,10 L9,11 L6,12 L5,14 L0,3 Z " fill="#232323" transform="translate(421,491)"/>
<path d="M0,0 L1,0 L1,18 L-1,21 L-2,14 L-3,12 L-1,12 L-1,5 Z " fill="#1F1F1F" transform="translate(305,453)"/>
<path d="M0,0 L8,1 L8,3 L-7,4 L-6,1 Z " fill="#222121" transform="translate(333,11)"/>
<path d="M0,0 L10,0 L19,1 L18,3 L5,3 L0,1 Z " fill="#141314" transform="translate(398,679)"/>
<path d="M0,0 L3,1 L7,9 L7,12 L5,12 L0,4 Z " fill="#292929" transform="translate(414,478)"/>
<path d="M0,0 L2,0 L3,6 L3,14 L1,15 L0,9 Z " fill="#090A0A" transform="translate(350,69)"/>
<path d="M0,0 L2,0 L1,8 L-1,11 L-4,11 L-1,2 Z " fill="#2D2C2D" transform="translate(435,653)"/>
<path d="M0,0 L1,0 L2,10 L1,17 L-1,15 L-1,2 Z " fill="#141415" transform="translate(314,592)"/>
<path d="M0,0 L1,3 L-2,6 L-8,6 L-9,3 L-4,3 L-3,1 Z " fill="#201F21" transform="translate(363,193)"/>
<path d="M0,0 L1,4 L3,4 L2,18 L1,18 Z " fill="#343334" transform="translate(305,445)"/>
<path d="M0,0 L4,1 L9,7 L7,11 L4,5 L0,2 Z " fill="#242324" transform="translate(342,14)"/>
<path d="M0,0 L16,0 L20,2 L11,3 L11,2 L0,1 Z " fill="#2C2B2B" transform="translate(351,496)"/>
<path d="M0,0 L2,0 L2,10 L0,10 L-1,12 L-1,3 Z " fill="#2A2A2B" transform="translate(351,147)"/>
<path d="M0,0 L2,0 L3,3 L3,13 L1,12 Z " fill="#1F1F20" transform="translate(433,527)"/>
<path d="M0,0 L15,0 L15,1 L4,2 L4,4 L2,4 L2,2 L-1,1 Z " fill="#151515" transform="translate(349,497)"/>
<path d="M0,0 L4,0 L4,2 L13,2 L13,3 L-2,3 L-2,1 Z " fill="#313131" transform="translate(237,664)"/>
<path d="M0,0 L6,2 L9,5 L1,4 L-1,3 Z " fill="#262626" transform="translate(342,577)"/>
<path d="M0,0 L3,0 L3,6 L-1,11 L-2,8 L-1,7 Z " fill="#323232" transform="translate(303,471)"/>
<path d="M0,0 L2,0 L3,6 L2,12 L0,12 Z " fill="#191919" transform="translate(410,454)"/>
<path d="M0,0 L3,1 L-5,10 L-6,7 Z " fill="#212021" transform="translate(371,14)"/>
<path d="M0,0 L9,0 L11,2 L5,3 L0,2 Z " fill="#1F1F20" transform="translate(353,581)"/>
<path d="M0,0 L2,0 L2,16 L1,16 L0,5 L-1,1 Z " fill="#1A191A" transform="translate(315,87)"/>
<path d="M0,0 L2,2 L2,8 L4,9 L1,10 L0,12 Z " fill="#242324" transform="translate(392,541)"/>
<path d="M0,0 L4,1 L8,6 L6,9 L2,3 L0,2 Z " fill="#282828" transform="translate(390,14)"/>
<path d="M0,0 L9,0 L13,2 L5,3 L-1,2 Z " fill="#111012" transform="translate(353,664)"/>
<path d="M0,0 L2,1 L2,8 L0,9 L-1,7 L-1,1 Z " fill="#343434" transform="translate(405,652)"/>
<path d="M0,0 L7,6 L4,7 L3,9 L0,3 Z " fill="#171618" transform="translate(331,568)"/>
<path d="M0,0 L1,3 L-4,10 L-5,6 Z " fill="#1D1D1D" transform="translate(301,480)"/>
<path d="M0,0 L3,2 L3,8 L0,9 Z " fill="#373738" transform="translate(279,542)"/>
<path d="M0,0 L3,1 L0,8 L-2,7 Z " fill="#232224" transform="translate(230,667)"/>
<path d="M0,0 L2,2 L0,8 L-2,8 L-1,1 Z " fill="#1A1A1B" transform="translate(391,555)"/>
<path d="M0,0 L1,0 L1,5 L5,6 L5,8 L1,9 L0,7 Z " fill="#464446" transform="translate(352,185)"/>
<path d="M0,0 L1,4 L-1,6 L-4,5 L-3,2 Z " fill="#2B2C2C" transform="translate(330,524)"/>
<path d="M0,0 L2,0 L3,8 L1,8 Z " fill="#252626" transform="translate(428,506)"/>
<path d="M0,0 L2,0 L0,4 L-4,7 L-3,3 Z " fill="#222122" transform="translate(323,14)"/>
<path d="M0,0 Z " fill="#000000" transform="translate(321,552)"/>
<path d="M0,0 Z " fill="#000000" transform="translate(357,193)"/>
</svg>
